<svg width="176" height="40" viewBox="0 0 176 40" fill="none" xmlns="http://www.w3.org/2000/svg">
<path d="M24.0678 8.81364C23.661 7.86449 22.5085 7.5255 21.6271 8.00008C20.4068 8.67805 19.322 9.49161 18.3729 10.5086C16.9492 11.9323 15.7966 13.6272 14.9831 15.5255C14.4407 16.8814 14.0339 18.2374 13.8983 19.7289C13.7627 20.7458 14.5763 21.695 15.5932 21.695C16.4068 21.695 17.1525 21.0848 17.2881 20.2713C17.4237 19.1187 17.6949 18.034 18.1695 16.9492C18.7797 15.4577 19.661 14.1696 20.8136 13.017C21.6271 12.2035 22.4407 11.5933 23.3898 11.0509C24.0678 10.5086 24.4068 9.6272 24.0678 8.81364Z" fill="#F9F9FA"/>
<path d="M47.7966 36.6102H45.2203C48.9491 32.7458 51.1864 27.4576 51.1864 21.6949C51.1864 9.69491 41.4237 0 29.4915 0C17.4915 0 7.79661 9.76271 7.79661 21.6949C7.79661 27.4576 10.1017 32.7458 13.7627 36.6102H1.69492C0.745763 36.6102 0 37.3559 0 38.3051C0 39.2542 0.745763 40 1.69492 40H47.7966C48.7458 40 49.4915 39.2542 49.4915 38.3051C49.4915 37.3559 48.7458 36.6102 47.7966 36.6102ZM40.0678 36.6102H18.8475C14.1695 33.2881 11.1186 27.8644 11.1186 21.6949C11.1186 11.5932 19.322 3.38983 29.4237 3.38983C39.5254 3.38983 47.7288 11.5932 47.7288 21.6949C47.7966 27.7966 44.7458 33.2881 40.0678 36.6102Z" fill="#F9F9FA"/>
<path d="M171.864 32.3389C171.39 32.3389 170.983 32.5423 170.712 32.8813C169.22 34.7118 166.915 35.2542 164.407 35.2542C161.017 35.2542 158.102 33.1525 156.881 30.1695H171.932H173.898C174.644 30.1695 175.254 29.6271 175.39 28.8813C175.593 27.4576 175.593 25.9661 175.186 24.4745C173.966 19.7966 169.763 16.2712 164.949 16.0678C157.491 15.7288 151.593 22.7118 153.763 30.4406C154.983 34.7796 159.729 38.1695 164.203 38.305C167.729 38.3728 170.915 37.2203 173.017 34.8474C173.83 33.8305 173.153 32.3389 171.864 32.3389ZM156.271 27.1864C156.271 22.7118 159.932 19.0508 164.407 19.0508C168.881 19.0508 172.542 22.7118 172.542 27.1864H156.271Z" fill="#F9F9FA"/>
<path d="M66.3728 12.4067C67.1864 12.4067 67.8644 13.0847 67.8644 13.8983V19.5254C69.8983 17.3559 72.8135 16 75.9322 16C82.1017 16 87.0508 20.9491 87.0508 27.1186C87.0508 33.1525 82.2373 38.1017 76.2034 38.2372C69.9661 38.3728 64.8135 33.0847 64.8135 26.7796V13.8983C64.8813 13.0847 65.5593 12.4067 66.3728 12.4067ZM67.8644 27.5932C68.0678 31.7966 71.5932 35.1864 75.7966 35.2542C80.4067 35.322 84.1356 31.661 84.1356 27.1186C84.1356 22.644 80.5423 19.0508 76 19.0508C71.322 19.0508 67.5932 22.9152 67.8644 27.5932Z" fill="#F9F9FA"/>
<path d="M109.966 38.1017C109.153 38.1017 108.475 37.4238 108.475 36.6102V34.8475C106.034 37.4238 102.441 38.8475 98.5763 38.1695C93.6271 37.356 89.7627 33.2204 89.2881 28.2712C88.6102 21.5594 94.0339 15.9322 100.61 16.0678C106.576 16.2034 111.458 21.4916 111.458 27.4577V36.5424C111.458 37.4238 110.78 38.1017 109.966 38.1017ZM108.407 28.2034C109.085 22.9153 104.61 18.4407 99.322 19.1187C95.7288 19.5933 92.8135 22.4407 92.339 26.1017C91.661 31.3899 96.1356 35.9322 101.492 35.2543C105.085 34.7119 107.932 31.7966 108.407 28.2034Z" fill="#F9F9FA"/>
<path d="M130.373 38.1017C129.559 38.1017 128.881 37.4237 128.881 36.6101V13.8983C128.881 13.0847 129.559 12.4067 130.373 12.4067C131.186 12.4067 131.864 13.0847 131.864 13.8983V19.7288C133.898 17.5593 136.814 16.2033 139.932 16.2033C146.102 16.2033 151.051 21.2203 151.051 27.322V36.5423C151.051 37.3559 150.373 38.0339 149.559 38.0339C148.746 38.0339 148.068 37.3559 148.068 36.5423V27.322C148.068 22.8474 144.407 19.1186 139.864 19.1864C135.39 19.2542 131.864 23.0508 131.864 27.5254V36.5423C131.932 37.4237 131.254 38.1017 130.373 38.1017Z" fill="#F9F9FA"/>
<path d="M117.288 27.1186V19.8644H123.932C124.746 19.8644 125.424 19.1864 125.424 18.3728C125.424 17.5593 124.746 16.8813 123.932 16.8813H117.288V13.8983C117.288 13.0847 116.61 12.4067 115.797 12.4067C114.983 12.4067 114.305 13.0847 114.305 13.8983V27.1186C114.305 32.6779 118.373 37.2881 123.729 38.1017C124.61 38.2372 125.424 37.5593 125.424 36.6101C125.424 35.8644 124.881 35.2542 124.203 35.1186C120.271 34.5762 117.288 31.1864 117.288 27.1186Z" fill="#F9F9FA"/>
</svg>
